<svg width="256" height="256" viewBox="0 0 256 256" fill="none" xmlns="http://www.w3.org/2000/svg">
<g filter="url(#filter0_d_23_11940)">
<path d="M138.019 58.8841C133.638 54.8555 127.743 52.4688 121.621 52.8514C113.738 53.3322 106.781 58.3162 103.207 65.0973C99.4175 62.8667 94.9986 61.7022 90.4948 62.0291L90.4236 62.0343L90.3524 62.0406C83.833 62.624 78.3737 66.2374 74.8585 70.7944C71.3554 75.3357 69.2445 81.5149 70.3441 87.9524L72.8501 103.546L71.8707 104.281C71.4691 104.582 71.0406 104.899 70.5898 105.233C66.3535 108.368 60.153 112.958 55.8781 119.277C50.6707 126.975 48.4734 136.798 52.3517 149.075C56.3952 161.875 64.2961 175.615 72.9458 186.198C77.286 191.508 82.0275 196.286 86.8385 199.81C91.4234 203.168 97.1311 206.169 103.204 206.137C103.211 206.137 103.218 206.137 103.225 206.137L184.685 205.851L190.143 205.832L192.396 200.861C207.033 168.573 206.368 139.051 205.876 117.24C205.806 114.159 205.74 111.232 205.722 108.472V91.8601V91.8332L205.721 91.8063C205.683 85.7948 203.765 79.5042 200.044 74.6084C196.228 69.5886 190.094 65.6303 182.27 66.1815C180.452 66.2913 178.671 66.6365 176.963 67.1877C175.864 63.243 173.673 59.7631 170.979 57.0821C166.804 52.9259 160.723 49.991 153.986 50.4206C147.668 50.8137 141.894 54.0831 138.019 58.8841Z" fill="black"/>
<path d="M138.019 58.8841C133.638 54.8555 127.743 52.4688 121.621 52.8514C113.738 53.3322 106.781 58.3162 103.207 65.0973C99.4175 62.8667 94.9986 61.7022 90.4948 62.0291L90.4236 62.0343L90.3524 62.0406C83.833 62.624 78.3737 66.2374 74.8585 70.7944C71.3554 75.3357 69.2445 81.5149 70.3441 87.9524L72.8501 103.546L71.8707 104.281C71.4691 104.582 71.0406 104.899 70.5898 105.233C66.3535 108.368 60.153 112.958 55.8781 119.277C50.6707 126.975 48.4734 136.798 52.3517 149.075C56.3952 161.875 64.2961 175.615 72.9458 186.198C77.286 191.508 82.0275 196.286 86.8385 199.81C91.4234 203.168 97.1311 206.169 103.204 206.137C103.211 206.137 103.218 206.137 103.225 206.137L184.685 205.851L190.143 205.832L192.396 200.861C207.033 168.573 206.368 139.051 205.876 117.24C205.806 114.159 205.74 111.232 205.722 108.472V91.8601V91.8332L205.721 91.8063C205.683 85.7948 203.765 79.5042 200.044 74.6084C196.228 69.5886 190.094 65.6303 182.27 66.1815C180.452 66.2913 178.671 66.6365 176.963 67.1877C175.864 63.243 173.673 59.7631 170.979 57.0821C166.804 52.9259 160.723 49.991 153.986 50.4206C147.668 50.8137 141.894 54.0831 138.019 58.8841Z" stroke="white" stroke-width="17"/>
</g>
<defs>
<filter id="filter0_d_23_11940" x="37.8809" y="41.8784" width="180.691" height="180.758" filterUnits="userSpaceOnUse" color-interpolation-filters="sRGB">
<feFlood flood-opacity="0" result="BackgroundImageFix"/>
<feColorMatrix in="SourceAlpha" type="matrix" values="0 0 0 0 0 0 0 0 0 0 0 0 0 0 0 0 0 0 127 0" result="hardAlpha"/>
<feOffset dy="4"/>
<feGaussianBlur stdDeviation="2"/>
<feComposite in2="hardAlpha" operator="out"/>
<feColorMatrix type="matrix" values="0 0 0 0 0 0 0 0 0 0 0 0 0 0 0 0 0 0 0.25 0"/>
<feBlend mode="normal" in2="BackgroundImageFix" result="effect1_dropShadow_23_11940"/>
<feBlend mode="normal" in="SourceGraphic" in2="effect1_dropShadow_23_11940" result="shape"/>
</filter>
</defs>
</svg>
